<svg xmlns="http://www.w3.org/2000/svg" viewBox="0 0 1000 1000" role="img" aria-labelledby="title desc">
  <title id="title">SSPG BOYS logo</title>
  <desc id="desc">Dark circular SSPG BOYS logo with blue flame styling.</desc>
  <defs>
    <radialGradient id="badgeFill" cx="50%" cy="45%" r="55%">
      <stop offset="0%" stop-color="#111827"/>
      <stop offset="72%" stop-color="#050816"/>
      <stop offset="100%" stop-color="#020617"/>
    </radialGradient>
    <linearGradient id="rim" x1="18%" y1="18%" x2="84%" y2="82%">
      <stop offset="0%" stop-color="#f8fafc"/>
      <stop offset="20%" stop-color="#7dd3fc"/>
      <stop offset="50%" stop-color="#0f172a"/>
      <stop offset="78%" stop-color="#38bdf8"/>
      <stop offset="100%" stop-color="#f8fafc"/>
    </linearGradient>
    <linearGradient id="letterFill" x1="0%" y1="0%" x2="0%" y2="100%">
      <stop offset="0%" stop-color="#ffffff"/>
      <stop offset="52%" stop-color="#f8fafc"/>
      <stop offset="100%" stop-color="#cbd5e1"/>
    </linearGradient>
    <linearGradient id="blueGlow" x1="0%" y1="0%" x2="100%" y2="100%">
      <stop offset="0%" stop-color="#7dd3fc"/>
      <stop offset="48%" stop-color="#0ea5e9"/>
      <stop offset="100%" stop-color="#1d4ed8"/>
    </linearGradient>
    <filter id="glow" x="-25%" y="-25%" width="150%" height="150%">
      <feGaussianBlur stdDeviation="7" result="blur"/>
      <feMerge>
        <feMergeNode in="blur"/>
        <feMergeNode in="SourceGraphic"/>
      </feMerge>
    </filter>
    <filter id="shadow" x="-20%" y="-20%" width="140%" height="140%">
      <feDropShadow dx="0" dy="14" stdDeviation="16" flood-color="#020617" flood-opacity="0.5"/>
    </filter>
  </defs>

  <g filter="url(#shadow)">
    <path d="M560 235c76-36 145-60 232-58-30 31-57 60-81 98 40-20 82-30 129-28-24 28-50 55-78 80 43-11 79-9 119 4-46 25-91 45-143 58 65 2 121 19 169 49-65 11-131 16-198 14 44 20 80 49 113 86-73-7-132-31-189-78 8 51-8 93-42 128-9-67-35-128-83-183-44-51-96-78-157-84 27-31 61-60 109-86Z" fill="url(#blueGlow)" filter="url(#glow)"/>
    <path d="M577 250c55-24 102-37 160-37-29 24-54 48-76 79 33-15 66-20 100-16-32 27-64 48-104 64 54 2 98 12 137 32-50 10-101 11-151 4 27 22 46 49 60 83-47-17-86-40-121-76 1 34-8 62-28 85-18-62-54-105-110-130 31-35 72-66 133-88Z" fill="#67e8f9" opacity="0.7"/>

    <circle cx="500" cy="510" r="250" fill="url(#rim)"/>
    <circle cx="500" cy="510" r="224" fill="url(#badgeFill)"/>
    <path d="M278 333c70-75 167-110 269-96 74 10 142 46 192 101-57-42-126-66-200-67-108-1-203 49-261 129Z" fill="#ffffff" opacity="0.95"/>
    <path d="M303 296c48-42 106-69 170-78-52 35-94 80-125 136h-69Z" fill="#f8fafc"/>
    <path d="M657 332c41 37 70 85 82 139" fill="none" stroke="#38bdf8" stroke-width="10" stroke-linecap="round" opacity="0.9"/>
  </g>

  <path d="M124 552c62-28 132-43 209-44h118l-44 54H236c-18 0-30 6-36 17-4 9 2 16 16 16h118c52 0 75 19 67 56-9 45-53 75-121 75H96l43-55h170c20 0 32-6 37-18 3-9-5-15-24-15H205c-49 0-70-20-61-58 3-11 8-20 15-28H124Zm326-44h213l-43 54H486c-19 0-31 6-36 17-4 9 3 16 20 16h91c53 0 77 20 69 58-9 45-53 73-120 73H329l43-55h167c20 0 32-6 36-18 4-9-5-15-25-15h-91c-52 0-75-20-66-58 8-38 29-62 57-72Zm240 0h172c68 0 96 26 82 78-13 50-57 80-120 80h-79l-48 60h-74Zm82 54-40 50h93c24 0 41-10 47-27 5-15-6-23-33-23Zm187 2h-83l44-56h83Z" fill="#06112a" opacity="0.65"/>
  <path d="M112 532c62-28 132-43 209-44h118l-44 54H224c-18 0-30 6-36 17-4 9 2 16 16 16h118c52 0 75 19 67 56-9 45-53 75-121 75H84l43-55h170c20 0 32-6 37-18 3-9-5-15-24-15H193c-49 0-70-20-61-58 3-11 8-20 15-28H112Zm326-44h213l-43 54H474c-19 0-31 6-36 17-4 9 3 16 20 16h91c53 0 77 20 69 58-9 45-53 73-120 73H317l43-55h167c20 0 32-6 36-18 4-9-5-15-25-15h-91c-52 0-75-20-66-58 8-38 29-62 57-72Zm240 0h172c68 0 96 26 82 78-13 50-57 80-120 80h-79l-48 60h-74Zm82 54-40 50h93c24 0 41-10 47-27 5-15-6-23-33-23Zm187 2h-83l44-56h83Z" fill="url(#letterFill)"/>
  <path d="M820 626h126l-42 54H783Z" fill="url(#blueGlow)" stroke="#e0f2fe" stroke-width="10" stroke-linejoin="round"/>
  <path d="M332 765h78m180 0h78" fill="none" stroke="#f8fafc" stroke-width="10" stroke-linecap="round"/>
  <text x="500" y="785" text-anchor="middle" font-family="Arial, Helvetica, sans-serif" font-size="58" font-weight="700" letter-spacing="22" fill="#f8fafc">BOYS</text>
  <circle cx="288" cy="780" r="11" fill="#38bdf8" filter="url(#glow)"/>
</svg>
